<?xml version="1.0" encoding="UTF-8"?><svg id="b" xmlns="http://www.w3.org/2000/svg" xmlns:xlink="http://www.w3.org/1999/xlink" viewBox="0 0 227 227"><defs><radialGradient id="d" cx="106.41" cy="106.26" fx="106.41" fy="106.26" r="97.76" gradientTransform="matrix(1, 0, 0, 1, 0, 0)" gradientUnits="userSpaceOnUse"><stop offset="0" stop-color="#b01e5e"/><stop offset=".45" stop-color="#5a0f30"/><stop offset=".82" stop-color="#19040d"/><stop offset="1" stop-color="#000"/></radialGradient><filter id="e" filterUnits="userSpaceOnUse"><feOffset dx="7" dy="7"/><feGaussianBlur result="f" stdDeviation="5"/><feFlood flood-color="#000" flood-opacity=".75"/><feComposite in2="f" operator="in"/><feComposite in="SourceGraphic"/></filter><linearGradient id="g" x1="23.81" y1="105.93" x2="189.33" y2="105.93" gradientTransform="matrix(1, 0, 0, 1, 0, 0)" gradientUnits="userSpaceOnUse"><stop offset="0" stop-color="#ff7bac"/><stop offset=".29" stop-color="#ffa4c6"/><stop offset=".77" stop-color="#ffe5ef"/><stop offset="1" stop-color="#fff"/></linearGradient><filter id="h" filterUnits="userSpaceOnUse"><feOffset dx="7" dy="7"/><feGaussianBlur result="i" stdDeviation="5"/><feFlood flood-color="#000" flood-opacity=".75"/><feComposite in2="i" operator="in"/><feComposite in="SourceGraphic"/></filter></defs><g id="c"><rect x="8.65" y="8.5" width="195.52" height="195.52" fill="url(#d)" filter="url(#e)" stroke="#9e005d" stroke-miterlimit="10"/><path d="M161.52,82.82c-8.05,0-13.64,2.1-18.72,5.95-3.5,2.62-6.82,6.3-9.45,11.02h-.35c-1.59-4.31-4.13-8.07-7.43-10.94v-15.63c0-24.6-13.91-30.75-23.28-30.75-6.74,0-11.42,1.76-15.67,4.98-2.93,2.2-5.71,5.27-7.91,9.23h-.29c-3.07-8.35-10.4-14.2-20.06-14.2-11.71,0-18.3,6.3-22.26,13.03h-.44l-.59-11.42h-11.28c.44,5.86,.59,11.86,.59,19.18v51.69h12.59v-42.76c0-2.2,.29-4.39,1.03-6.3,2.05-6.44,7.91-12.89,15.96-12.89,9.81,0,14.79,8.2,14.79,19.48v16.23c-.41,.93-.63,1.96-.59,3.04,.21,4.87,.29,10.03,.29,15.9v55.04c0,3.7,3,6.7,6.7,6.7h1.64c3.7,0,6.7-3,6.7-6.7v-44.38c0-2.62,.35-5.25,1.22-7.52,2.45-7.7,9.45-15.39,19.07-15.39,11.72,0,17.67,9.8,17.67,23.26v44.03c0,3.7,3,6.7,6.7,6.7h1.64c3.7,0,6.7-3,6.7-6.7v-45.6c0-2.8,.52-5.6,1.22-7.7,2.62-7.52,9.45-13.99,18.19-13.99,12.42,0,18.37,9.8,18.37,26.06v41.23c0,3.7,3,6.7,6.7,6.7h1.64c3.7,0,6.7-3,6.7-6.7v-43.15c0-29.39-16.62-36.73-27.81-36.73Zm-79.06,15.57h-.52l-.37-7.29c-.02-.46-.09-.9-.2-1.33v-18.61c0-2.34,.44-4.69,1.02-6.44,2.2-6.3,7.91-11.71,15.23-11.71,10.4,0,15.38,8.2,15.38,21.82v8.28c-1.27-.19-2.59-.29-3.94-.29-13.99,0-21.86,7.52-26.59,15.57Z" fill="url(#g)" filter="url(#h)" stroke="#000" stroke-miterlimit="10"/></g></svg>